<svg
            viewBox="0 0 932 209"
            fill="none"
            xmlns="http://www.w3.org/2000/svg"
            height="30"
          >
            <path
              d="M195.202 103.527C195.202 112.912 195.201 122.297 195.199 131.682C195.19 138.738 194.925 145.765 193.373 152.696C191.29 162.003 186.428 169.687 179.91 176.47C165.494 191.472 148.202 201.489 127.964 206.205C115.967 208.999 103.563 209.586 91.3571 207.938C67.1244 204.735 46.4726 194.394 29.4017 176.916C14.7938 161.936 5.61946 144.034 1.77617 123.397C-7.93559 71.2432 23.1151 21.101 72.035 5.13937C85.7197 0.674674 99.7288 -0.790115 114.071 0.441332C124.792 1.30705 135.307 3.87417 145.223 8.04658C149.453 9.84021 151.988 13.1745 152.559 17.7415C153.178 22.7009 151.426 26.7868 147.265 29.6517C143.735 32.0826 139.87 32.5065 135.905 30.8963C123.127 25.7084 109.878 23.4389 96.1612 24.9596C75.741 27.2231 58.543 36.0474 44.7896 51.3706C34.3665 62.9846 27.9415 76.5981 25.4842 92C19.9972 126.394 37.5371 160.245 69.0188 175.966C83.3453 183.12 98.4845 185.656 114.436 183.573C130.573 181.472 144.953 175.359 157.336 164.773C163.699 159.334 168.225 152.621 169.914 144.265C171.042 138.684 170.922 133.021 170.731 127.366C170.053 107.201 170.066 87.0258 170.321 66.8596C170.727 34.6526 192.877 9.90054 219.85 2.40797C253.401 -6.91219 289.63 11.6015 301.296 44.4929C314.32 81.2146 294.613 120.825 257.466 132.23C242.928 136.694 228.398 136.158 214.106 130.817C207.354 128.293 204.104 121.435 206.491 114.845C208.819 108.418 215.957 105.327 222.715 107.819C232.576 111.518 243.451 111.467 253.277 107.674C263.104 103.882 271.2 96.612 276.033 87.2416C288.592 62.9942 275.355 33.0587 248.983 26.078C225.451 19.8488 202.061 33.6724 196.131 57.3089C195.312 60.5307 194.898 63.8425 194.899 67.1672C194.928 79.2863 194.911 91.4054 194.911 103.525L195.202 103.527Z"
              fill="url(#paint0_linear)"
            ></path>
            <path
              d="M826.811 166.332C824.477 166.327 822.146 166.185 819.829 165.906C814.34 165.252 809.698 164.082 805.635 162.33C803.417 161.379 801.304 160.201 799.328 158.814C797.277 157.364 795.398 155.685 793.727 153.808C792.049 151.931 790.587 149.871 789.369 147.666C788.211 145.554 787.288 143.32 786.616 141.006C785.948 138.686 785.504 136.307 785.291 133.902C785.074 131.417 785.051 128.919 785.222 126.43C785.348 124.456 785.611 122.494 786.009 120.557C786.402 118.663 786.949 116.804 787.645 115C789.063 111.326 791.161 107.953 793.829 105.059C795.14 103.633 796.574 102.325 798.115 101.152C799.619 100.012 801.214 98.9995 802.885 98.1233C806.273 96.3744 809.881 95.0888 813.611 94.3007C815.81 93.8101 818.032 93.4323 820.269 93.1688C822.493 92.9082 824.73 92.7761 826.969 92.7732C829.717 92.7716 832.462 92.9829 835.178 93.4053C838.156 93.8679 841.08 94.6326 843.905 95.6876C846.728 96.7505 849.433 98.1056 851.975 99.7307C852.221 99.8878 852.468 100.033 852.813 100.235L852.821 100.239C853.005 100.348 853.214 100.47 853.459 100.618C853.459 99.6844 853.469 98.7882 853.479 97.9219C853.5 96.0332 853.519 94.25 853.43 92.4823C853.316 90.2236 852.187 88.2434 849.878 86.2492C845.875 82.7958 840.925 80.9749 834.296 80.5194C833.288 80.4503 832.271 80.4152 831.273 80.4152C823.38 80.4152 815.701 82.61 808.449 86.9384C806.879 87.8895 805.082 88.3985 803.247 88.4116C801.703 88.411 800.182 88.0318 798.818 87.3072C797.391 86.5421 796.174 85.4367 795.275 84.0887C793.821 81.936 793.241 79.309 793.653 76.7428C793.843 75.4823 794.281 74.2722 794.941 73.1818C795.601 72.0915 796.469 71.1427 797.497 70.3898C800.726 68.0502 804.257 66.161 807.994 64.7739C811.724 63.3923 815.578 62.374 819.503 61.7333C823.348 61.0485 827.245 60.6943 831.15 60.6745C833.757 60.6696 836.361 60.8591 838.94 61.2414C841.818 61.6652 844.661 62.3038 847.444 63.1517C850.136 63.9747 852.744 65.0529 855.233 66.3718C860.334 69.0837 864.737 72.945 868.095 77.6514C869.733 79.9152 870.998 82.4274 871.842 85.0924C872.667 87.7603 873.082 90.5384 873.073 93.3314C873.098 114.341 873.098 134.766 873.073 154.042C873.08 155.542 872.815 157.032 872.291 158.437C871.815 159.707 871.1 160.874 870.184 161.873C869.319 162.828 868.266 163.592 867.089 164.115C865.913 164.638 864.641 164.909 863.354 164.91C861.922 164.902 860.509 164.586 859.209 163.985C856.994 163.011 855.241 161.215 854.318 158.976C854.089 158.44 853.932 158.111 853.597 158.111C853.317 158.148 853.053 158.264 852.836 158.445C850.884 159.79 848.83 160.98 846.692 162.003C844.626 162.988 842.485 163.808 840.291 164.456C838.118 165.094 835.9 165.568 833.656 165.874C831.387 166.182 829.1 166.335 826.811 166.332ZM827.516 112.466C824.051 112.488 820.602 112.947 817.251 113.834C810.635 115.545 806.804 119.115 805.538 124.748C804.727 128.359 803.057 140.476 815.625 144.79C818.959 145.935 822.567 146.485 827.682 146.631H827.752C831.073 146.626 834.375 146.13 837.55 145.157C843.924 143.185 848.3 140.245 851.319 135.904C854.18 131.791 854.177 127.239 851.31 123.086C849.598 120.618 847.353 118.568 844.741 117.09C839.507 114.054 833.564 112.459 827.516 112.466Z"
              fill="#0058D9"
            ></path>
            <path
              d="M626.892 164.916C623.025 164.906 619.181 164.312 615.491 163.154C611.576 161.908 607.836 160.163 604.365 157.963C601.243 156.024 598.339 153.755 595.702 151.195C593.183 148.736 590.947 146.001 589.037 143.043C587.134 140.081 585.556 136.922 584.329 133.621C583.061 130.191 582.127 126.646 581.54 123.036C580.693 118.081 580.417 113.046 580.717 108.028C580.871 105.659 581.181 103.303 581.645 100.975C582.102 98.69 582.717 96.4397 583.486 94.2403C584.257 92.0428 585.182 89.9029 586.256 87.8369C587.352 85.7344 588.594 83.7113 589.973 81.7824C591.405 79.7832 592.969 77.8815 594.653 76.0898C596.428 74.2037 598.317 72.4279 600.309 70.7725C602.205 69.1873 604.233 67.7664 606.369 66.5252C608.439 65.3274 610.61 64.3163 612.859 63.5037C617.389 61.8896 622.165 61.0754 626.973 61.0975C628.387 61.0975 629.839 61.1642 631.288 61.2973C633.479 61.4949 635.648 61.8826 637.772 62.456C639.841 63.0179 641.857 63.7597 643.796 64.6732C645.739 65.5919 647.602 66.6708 649.366 67.8988C651.175 69.1617 652.887 70.5596 654.486 72.0807C654.645 72.2329 654.814 72.3823 654.991 72.5405C655.077 72.6177 655.168 72.698 655.263 72.7843C655.757 72.334 655.702 71.8281 655.647 71.3391C655.629 71.1962 655.618 71.0524 655.616 70.9083L655.621 68.8977C655.643 61.5698 655.665 53.9941 655.613 46.5371C655.589 43.0797 656.645 40.4442 658.841 38.48C660.582 36.9233 662.481 36.1337 664.486 36.1337C665.664 36.147 666.828 36.3995 667.907 36.8761C669.578 37.5558 671.006 38.7215 672.009 40.2229C672.961 41.7522 673.534 43.4874 673.681 45.2837C673.703 45.5582 673.708 45.834 673.695 46.1092C673.692 46.2314 673.689 46.3573 673.689 46.4816C673.689 54.1729 673.689 61.8641 673.689 69.5554C673.689 96.9433 673.686 125.264 673.701 153.144C673.732 154.818 673.397 156.478 672.721 158.009C672.016 159.512 670.941 160.811 669.598 161.784C668.213 162.813 666.533 163.364 664.81 163.357C663.736 163.354 662.672 163.157 661.668 162.775C660.653 162.393 659.711 161.839 658.883 161.137C658.041 160.428 657.334 159.57 656.798 158.608C656.238 157.601 655.884 156.493 655.754 155.348C655.701 154.877 655.671 154.405 655.635 153.806C655.616 153.492 655.595 153.135 655.565 152.728C652.506 155.604 649.12 158.539 645.084 160.496C642.159 161.928 639.09 163.043 635.928 163.821C632.97 164.542 629.937 164.909 626.892 164.916ZM626.784 80.4886C618.738 80.4886 611.768 84.1905 606.068 91.4909C599.338 100.109 597.308 110.332 600.028 121.875C601.524 128.528 605.092 134.533 610.217 139.024C614.741 142.948 620.182 145.237 625.145 145.305C625.725 145.336 626.305 145.352 626.869 145.352C633.511 145.352 639.222 143.199 644.331 138.769C656.349 128.349 659.143 109.069 650.692 94.876C645.904 86.8372 639.332 82.1132 631.156 80.8358C629.71 80.6072 628.248 80.4906 626.784 80.487V80.4886Z"
              fill="#0058D9"
            ></path>
            <path
              d="M699.47 165.076C698.297 165.064 697.134 164.85 696.034 164.442C694.267 163.846 692.71 162.753 691.548 161.292C690.422 159.782 689.733 157.99 689.559 156.113C689.467 155.156 689.431 154.194 689.45 153.233C689.45 153.129 689.45 153.025 689.45 152.922C689.445 137.685 689.445 122.194 689.445 107.213V100.594C689.445 95.2588 689.445 89.8667 689.445 84.6516V84.6445C689.445 72.3947 689.445 59.7274 689.454 47.2687C689.456 44.6116 690.047 42.3605 691.21 40.5777C692.43 38.7561 694.225 37.3968 696.308 36.7167C697.572 36.3159 698.897 36.1401 700.222 36.1973H700.232C704.364 36.1969 708.565 36.2212 712.628 36.2444H712.635C716.748 36.2684 721 36.2932 725.181 36.2932C731.157 36.2932 736.094 36.2428 740.716 36.1333C741.035 36.1257 741.359 36.1221 741.678 36.1221C750.391 36.1019 758.869 38.9485 765.808 44.224C769.218 46.8132 772.207 49.9144 774.67 53.4179C777.211 57.0302 779.191 61.0068 780.544 65.2126C782.049 69.873 782.744 74.7576 782.598 79.6535C782.461 84.4465 781.539 89.1844 779.869 93.6781C778.217 98.1547 775.833 102.325 772.817 106.02C769.759 109.772 766.063 112.954 761.9 115.418C755.947 118.969 749.139 120.826 742.21 120.787H740.428C738.214 120.787 735.963 120.787 733.787 120.79H733.776C731.644 120.79 729.228 120.793 726.864 120.793C722.487 120.793 716.715 120.788 710.885 120.753H710.827C710.055 120.753 709.634 120.859 709.376 121.12C709.117 121.381 709.006 121.826 709.012 122.599C709.058 129.25 709.056 136.012 709.052 142.55V142.577C709.052 146.373 709.049 150.296 709.057 154.155C709.086 155.582 708.88 157.005 708.446 158.366C707.996 159.727 707.237 160.966 706.229 161.985C704.224 164.035 701.949 165.075 699.47 165.076ZM711.385 56.3423C710.503 56.3423 709.834 56.4246 709.444 56.8266C709.103 57.177 708.962 57.7768 708.988 58.7709C709.107 63.4661 709.087 68.2433 709.068 72.8634C709.059 74.6614 709.051 76.5186 709.051 78.3458C709.051 80.1554 709.054 81.9954 709.058 83.775V83.8002C709.068 88.6904 709.077 93.7493 709.014 98.7202C709.004 99.5405 709.122 100.015 709.408 100.305C709.695 100.596 710.154 100.715 710.956 100.715H711.012C716.324 100.68 721.679 100.675 726.217 100.675H730.727H730.854C732.48 100.675 734.105 100.675 735.731 100.675C738.263 100.675 740.359 100.675 742.327 100.669C746.271 100.68 750.122 99.4703 753.353 97.2051C760.964 91.9416 764.407 81.9067 761.92 72.2325C759.509 62.8552 751.413 56.306 742.23 56.306C742.034 56.306 741.843 56.3088 741.646 56.3148C737.942 56.427 733.906 56.4814 729.307 56.4814C724.97 56.4814 720.561 56.4338 716.296 56.3879H716.279C714.723 56.3711 713.113 56.3535 711.531 56.3387L711.385 56.3423Z"
              fill="#0058D9"
            ></path>
            <path
              d="M532.217 164.862C529.386 164.867 526.564 164.543 523.808 163.895C521.134 163.258 518.542 162.314 516.084 161.083C513.587 159.824 511.227 158.309 509.044 156.561C506.749 154.719 504.621 152.679 502.685 150.463C500.924 148.464 499.319 146.331 497.884 144.086C496.482 141.884 495.253 139.577 494.208 137.185C493.164 134.79 492.303 132.319 491.63 129.793C490.946 127.211 490.442 124.584 490.125 121.931C489.642 118.044 489.504 114.122 489.712 110.21C489.918 106.452 490.509 102.726 491.476 99.0891C492.451 95.4654 493.822 91.9606 495.565 88.6386C497.397 85.1726 499.596 81.9147 502.126 78.9217C504.069 76.5963 506.227 74.4597 508.571 72.5403C510.809 70.7136 513.24 69.1378 515.821 67.841C518.387 66.5611 521.094 65.587 523.887 64.9386C526.805 64.271 529.79 63.9379 532.783 63.9457C533.693 63.9457 534.625 63.9753 535.554 64.0336C538.14 64.1925 540.703 64.6168 543.203 65.2998C545.609 65.9642 547.942 66.8719 550.165 68.0088C552.389 69.1518 554.501 70.4991 556.476 72.0332C558.509 73.6167 560.413 75.3598 562.17 77.2459C564.147 79.355 565.942 81.6272 567.537 84.0384C569.088 86.3907 570.439 88.869 571.576 91.4475C572.711 94.0311 573.64 96.7004 574.355 99.4303C575.085 102.228 575.617 105.074 575.946 107.947C575.986 108.297 576.03 108.652 576.072 108.995V109.006C576.398 111.646 576.734 114.375 575.972 117.041C575.682 118.096 575.243 119.104 574.668 120.034C573.64 121.699 572.025 122.917 570.143 123.448C569.1 123.742 568.02 123.885 566.937 123.875C563.386 123.877 559.531 123.878 554.802 123.878H546.711H538.622C536.345 123.878 534.03 123.878 531.791 123.881H531.746C529.416 123.881 527.008 123.883 524.622 123.883C518.675 123.883 514.137 123.875 509.908 123.855H509.778C509.092 123.855 508.549 123.881 508.324 124.201C508.142 124.462 508.178 124.92 508.437 125.642C512.495 136.919 519.085 143.412 528.581 145.491C530.202 145.852 531.857 146.037 533.517 146.043C539.903 146.043 545.721 143.133 550.809 137.393C552.023 135.985 553.112 134.474 554.066 132.878C554.877 131.467 555.981 130.248 557.305 129.303C558.464 128.517 559.834 128.105 561.233 128.122C562 128.128 562.763 128.225 563.507 128.41C565.229 128.894 566.735 129.952 567.776 131.409C568.963 132.964 569.688 134.823 569.866 136.772C569.966 137.897 569.901 139.031 569.673 140.138C569.437 141.246 569.02 142.307 568.437 143.278C560.986 155.71 550.533 162.861 537.369 164.535C535.66 164.752 533.94 164.861 532.217 164.862ZM532.696 82.7387C532.291 82.7387 531.88 82.7494 531.472 82.7706C526.534 83.0287 521.031 85.6874 516.374 90.0622C511.691 94.4602 508.72 99.8087 508.22 104.736H557.812C555.524 94.0726 545.941 82.7387 532.694 82.7387H532.696Z"
              fill="#0058D9"
            ></path>
            <path
              d="M389.687 36.1925C402.305 36.268 416.607 43.1824 428.467 55.518C429.347 56.4294 430.039 57.5061 430.501 58.686C430.964 59.866 431.189 61.1259 431.164 62.3934C431.139 63.6608 430.864 64.9107 430.354 66.0713C429.845 67.2318 429.111 68.2799 428.196 69.1555C424.355 72.867 418.81 72.8314 414.824 68.9089C409.444 63.6163 403.453 59.2224 396.159 57.1263C380.546 52.6396 366.931 56.662 355.674 68.0391C336.795 87.1185 338.899 119.976 359.799 136.797C373.735 148.012 393.178 148.499 408.129 138.035C410.515 136.346 412.771 134.479 414.877 132.451C418.757 128.758 424.417 128.735 428.141 132.366C431.981 136.111 432.282 141.861 428.528 145.791C420.81 153.87 411.654 159.776 400.814 162.658C369.637 170.946 338.851 154.256 327.517 123.555C322.942 111.23 322.134 97.8197 325.198 85.0333C328.262 72.2469 335.057 60.6635 344.719 51.7594C355.548 41.7679 369.922 36.2148 389.687 36.1925Z"
              fill="#0058D9"
            ></path>
            <path
              d="M900.129 100.517C900.129 118.23 900.094 135.943 900.152 153.655C900.167 158.165 898.687 161.761 894.572 163.865C888.84 166.795 881.752 163.077 880.705 156.673C880.574 155.818 880.511 154.954 880.518 154.089C880.509 118.33 880.508 82.5718 880.515 46.8132C880.517 39.6887 886.068 34.9155 892.58 36.3883C896.539 37.2841 899.78 40.9217 899.983 44.9884C900.158 48.509 900.12 52.0419 900.123 55.5696C900.136 70.5518 900.137 85.5343 900.129 100.517Z"
              fill="#0058D9"
            ></path>
            <path
              d="M439.825 117.5C439.825 105.048 439.937 92.5933 439.765 80.1413C439.704 75.765 442.663 71.9232 446.232 70.8655C450.119 69.714 454.828 70.3973 457.506 74.1779C458.145 75.0773 458.51 75.4009 459.602 74.6102C467.84 68.6432 477.005 68.0478 486.584 70.1859C488.085 70.4649 489.514 71.0426 490.788 71.8848C492.445 73.0256 493.669 74.6939 494.261 76.619C494.853 78.5442 494.778 80.6131 494.047 82.49C493.215 84.4695 491.745 86.1129 489.871 87.1582C487.998 88.2035 485.829 88.5906 483.71 88.2576C481.089 87.8521 478.514 87.2835 475.819 87.5504C466.032 88.5198 459.182 96.9837 459.288 105.388C459.5 121.834 459.356 138.283 459.346 154.732C459.343 159.228 457.236 162.543 453.488 164.051C451.6 164.822 449.526 165.012 447.53 164.598C445.534 164.185 443.706 163.185 442.279 161.728C440.795 160.214 439.814 158.447 439.816 156.246C439.821 145.661 439.825 135.076 439.825 124.491C439.826 122.161 439.826 119.831 439.825 117.5Z"
              fill="#0058D9"
            ></path>
            <path
              d="M919.313 143.147C921.714 143.168 924.056 143.901 926.043 145.252C928.029 146.604 929.572 148.515 930.476 150.743C931.38 152.971 931.605 155.418 931.123 157.774C930.64 160.13 929.472 162.291 927.766 163.983C926.059 165.676 923.89 166.824 921.533 167.284C919.176 167.744 916.735 167.495 914.519 166.568C912.303 165.64 910.41 164.077 909.08 162.074C907.75 160.072 907.042 157.719 907.044 155.314C907.047 153.707 907.367 152.116 907.986 150.633C908.605 149.151 909.51 147.805 910.651 146.674C911.791 145.543 913.143 144.65 914.63 144.044C916.117 143.439 917.708 143.134 919.313 143.147Z"
              fill="#1CF1A1"
            ></path>
            <defs>
              <linearGradient
                id="paint0_linear"
                x1="268.98"
                y1="83.3314"
                x2="34.5987"
                y2="127.585"
                gradientUnits="userSpaceOnUse"
              >
                <stop stop-color="#00F19B"></stop>
                <stop offset="1" stop-color="#005ED6"></stop>
              </linearGradient>
            </defs>
          </svg>